<svg width="40" height="40" viewBox="0 0 40 40" fill="none" xmlns="http://www.w3.org/2000/svg">
<rect width="40" height="40" rx="13" fill="#DA0000"/>
<path d="M19.8 18.9C17.53 18.31 16.8 17.7 16.8 16.75C16.8 15.66 17.81 14.9 19.5 14.9C20.92 14.9 21.63 15.44 21.89 16.3C22.01 16.7 22.34 17 22.76 17H23.06C23.72 17 24.19 16.35 23.96 15.73C23.54 14.55 22.56 13.57 21 13.19V12.5C21 11.67 20.33 11 19.5 11C18.67 11 18 11.67 18 12.5V13.16C16.06 13.58 14.5 14.84 14.5 16.77C14.5 19.08 16.41 20.23 19.2 20.9C21.7 21.5 22.2 22.38 22.2 23.31C22.2 24 21.71 25.1 19.5 25.1C17.85 25.1 17 24.51 16.67 23.67C16.52 23.28 16.18 23 15.77 23H15.49C14.82 23 14.35 23.68 14.6 24.3C15.17 25.69 16.5 26.51 18 26.83V27.5C18 28.33 18.67 29 19.5 29C20.33 29 21 28.33 21 27.5V26.85C22.95 26.48 24.5 25.35 24.5 23.3C24.5 20.46 22.07 19.49 19.8 18.9Z" fill="white"/>
</svg>
