<svg width="40" height="40" viewBox="0 0 40 40" fill="none" xmlns="http://www.w3.org/2000/svg">
<rect width="40" height="40" rx="13" fill="#0083AC"/>
<path d="M29.782 23.7472H26.2912C25.5072 23.7472 25.436 24.0725 25.3303 24.7688C25.0447 26.4464 23.4428 27.4725 21.5194 27.4725C19.3111 27.4725 17.5339 25.735 17.3907 23.7418H22.3267C22.9324 23.7418 23.3596 23.5327 23.3596 22.7284V21.7285C23.3596 20.9265 22.9324 20.7406 22.3267 20.7406H17.3555V19.2504H22.3267C22.9324 19.2504 23.3596 19.042 23.3596 18.237V17.2371C23.3596 16.4343 22.9324 16.2236 22.3267 16.2236H17.4267C17.6763 14.4067 19.3944 12.4922 21.4962 12.4922C23.4197 12.4922 24.5103 13.25 25.2599 14.4029C25.5447 14.8227 25.5807 15.4853 26.3288 15.4853H29.7716C30.5909 15.4853 30.8764 15.193 30.8764 14.3557C30.4132 9.91964 26.0094 8 21.5913 8C17.39 8 12.2006 10.8431 12.0934 16.2229H10.1565C9.5164 16.2229 9.1236 16.4321 9.1236 17.2363V18.2363C9.1236 19.0398 9.51566 19.2497 10.1565 19.2497H11.3888V20.7391H10.1565C9.5164 20.7391 9.1236 20.9483 9.1236 21.7526V22.7292C9.1236 23.5313 9.51566 23.7427 10.1565 23.7427H12.0912V23.8836C12.0912 29.3675 17.2813 32 21.5194 32C25.9374 32 30.8501 29.3473 30.8501 24.8393C30.8501 24.0012 30.5653 23.7472 29.782 23.7472Z" fill="white"/>
</svg>
