<svg width="40" height="40" viewBox="0 0 40 40" fill="none" xmlns="http://www.w3.org/2000/svg">
<rect width="40" height="40" rx="13" fill="#007EDA"/>
<path d="M21.0909 20.3636C24.4996 20.3636 27.2727 17.5905 27.2727 14.1818C27.2727 10.7732 24.4996 8 21.0909 8C21.0776 8 21.0644 8.00022 21.0512 8.00073H16.0015C16.0009 8.00073 16.0005 8.00065 16.0001 8.00065C15.3976 8.00065 14.9092 8.48909 14.9092 9.09156V9.09164V19.2727V22.5455H13.8182C13.2157 22.5455 12.7273 23.0339 12.7273 23.6364C12.7273 24.2388 13.2157 24.7273 13.8182 24.7273H14.9091V30.9091C14.9091 31.5116 15.3975 32 16 32C16.6025 32 17.0909 31.5116 17.0909 30.9091V24.7273H21.0909C21.6934 24.7273 22.1818 24.2388 22.1818 23.6364C22.1818 23.0339 21.6934 22.5455 21.0909 22.5455H17.0909V20.3636H21.0909ZM21.0909 10.1825C21.1027 10.1825 21.1145 10.1823 21.1261 10.182C23.3156 10.2009 25.0909 11.9879 25.0909 14.1818C25.0909 16.3874 23.2965 18.1818 21.0909 18.1818H17.0909V10.1825H21.0909Z" fill="white"/>
</svg>
