<svg width="40" height="40" viewBox="0 0 40 40" fill="none" xmlns="http://www.w3.org/2000/svg">
<rect width="40" height="40" rx="13" fill="#00CDDA"/>
<path d="M13.25 14C13.25 13.8011 13.329 13.6103 13.4697 13.4697C13.6103 13.329 13.8011 13.25 14 13.25H26C26.1989 13.25 26.3897 13.329 26.5303 13.4697C26.671 13.6103 26.75 13.8011 26.75 14C26.75 14.1989 26.671 14.3897 26.5303 14.5303C26.3897 14.671 26.1989 14.75 26 14.75H14C13.8011 14.75 13.6103 14.671 13.4697 14.5303C13.329 14.3897 13.25 14.1989 13.25 14ZM28.25 23.75C28.0511 23.75 27.8603 23.829 27.7197 23.9697C27.579 24.1103 27.5 24.3011 27.5 24.5V26H24.5C24.1023 25.9995 23.721 25.8414 23.4398 25.5602C23.1586 25.279 23.0005 24.8977 23 24.5V20H27.5C27.6989 20 27.8897 19.921 28.0303 19.7803C28.171 19.6397 28.25 19.4489 28.25 19.25C28.25 19.0511 28.171 18.8603 28.0303 18.7197C27.8897 18.579 27.6989 18.5 27.5 18.5H12.5C12.3011 18.5 12.1103 18.579 11.9697 18.7197C11.829 18.8603 11.75 19.0511 11.75 19.25C11.75 19.4489 11.829 19.6397 11.9697 19.7803C12.1103 19.921 12.3011 20 12.5 20H17V20.75C16.9984 22.1419 16.4448 23.4764 15.4606 24.4606C14.4764 25.4448 13.1419 25.9984 11.75 26C11.5511 26 11.3603 26.079 11.2197 26.2197C11.079 26.3603 11 26.5511 11 26.75C11 26.9489 11.079 27.1397 11.2197 27.2803C11.3603 27.421 11.5511 27.5 11.75 27.5C13.5396 27.498 15.2553 26.7862 16.5207 25.5207C17.7862 24.2553 18.498 22.5396 18.5 20.75V20H21.5V24.5C21.5009 25.2954 21.8173 26.0579 22.3797 26.6203C22.9421 27.1827 23.7046 27.4991 24.5 27.5H28.25C28.4489 27.5 28.6397 27.421 28.7803 27.2803C28.921 27.1397 29 26.9489 29 26.75V24.5C29 24.3011 28.921 24.1103 28.7803 23.9697C28.6397 23.829 28.4489 23.75 28.25 23.75Z" fill="white"/>
</svg>
